<svg id="icon" xmlns="http://www.w3.org/2000/svg" viewBox="0 0 1000 1000"><defs><style>.cls-1{fill:#75aadb;}.cls-2{fill:#fff;}</style></defs><circle id="background" class="cls-1" cx="500" cy="500" r="500"/><path id="foreground" class="cls-2" d="M671.12,659.57h54.22V701.7H642.55L505.36,496.08H432.25V659.57h71.5V701.7h-180V659.57h61.82V297.24l-61.82-7.59V249.79c23.4,5.32,43.74,9,69.24,9,38.41,0,77.63-9,116-9,74.57,0,143.81,33.89,143.81,116.69,0,64.07-38.41,104.74-98,122ZM432.25,455.41l39.22.8C567.18,457.66,604,420.87,604,371.8c0-57.29-41.47-79.89-94.09-79.89-24.85,0-50.52,2.26-77.63,5.33Z"/></svg>